<svg width="241" height="370" viewBox="0 0 241 370" fill="none" xmlns="http://www.w3.org/2000/svg">
<path d="M47.7066 82.275C59.8109 82.275 71.4194 87.0834 79.9784 95.6424C88.5374 104.201 93.3458 115.81 93.3458 127.914V349.014C93.3458 353.939 91.3896 358.661 87.9075 362.143C84.4255 365.625 79.7028 367.582 74.7784 367.582H20.6048C18.1634 367.587 15.7449 367.11 13.4879 366.179C11.2309 365.248 9.1796 363.881 7.45149 362.157C5.72338 360.432 4.35237 358.383 3.41693 356.128C2.48149 353.873 2 351.456 2 349.014V127.914C1.99999 121.915 3.18272 115.975 5.48052 110.433C7.77832 104.892 11.1461 99.8574 15.3912 95.6185C19.6364 91.3796 24.6756 88.0193 30.2205 85.7297C35.7655 83.44 41.7075 82.2661 47.7066 82.275Z" fill="#F7F3EF" stroke="#070707" stroke-width="2.99715" stroke-linecap="round" stroke-linejoin="round"/>
<path d="M93.3158 132.949V346.969C93.3158 358.35 84.9987 367.582 74.7484 367.582H20.6048C10.3471 367.582 2.03747 358.35 2.03747 346.969V132.949C2.03747 110.231 15.5247 90.9891 34.0546 84.5752V11.2198C34.0546 7.09873 37.0517 3.72693 40.7982 3.72693H54.5851C58.3315 3.72693 61.3287 7.07625 61.3287 11.2198V84.5752C68.4888 87.1198 74.8872 91.4378 79.926 97.1258C88.6575 107.005 93.4267 119.765 93.3158 132.949Z" fill="#F7F3EF" stroke="#070707" stroke-width="2.99715" stroke-linecap="round" stroke-linejoin="round"/>
<path d="M8.85599 341.828V133.234H86.4973V341.828C86.4973 351.24 79.911 358.875 71.7888 358.875H23.557C15.4422 358.875 8.85599 351.24 8.85599 341.828Z" fill="#F7F3EF" stroke="#070707" stroke-width="2.99715" stroke-linecap="round" stroke-linejoin="round"/>
<path d="M93.3158 132.949V346.969C93.3463 349.851 92.7992 352.711 91.7066 355.379C90.614 358.046 88.9981 360.468 86.9544 362.501C82.069 367.237 74.4112 365.124 71.8412 358.523L70.2827 354.514C66.3864 344.503 57.4998 338.03 47.6766 338.03C37.8535 338.03 28.9444 344.511 25.0706 354.514L23.5196 358.515C20.9495 365.116 13.2918 367.229 8.40642 362.501C6.36071 360.468 4.74317 358.045 3.64929 355.376C2.5554 352.707 2.00734 349.845 2.03746 346.961V132.949C2.03746 110.231 15.5247 90.9891 34.0546 84.5752V11.2198C34.0546 7.09873 37.0517 3.72693 40.7982 3.72693H54.5851C58.3315 3.72693 61.3287 7.07625 61.3287 11.2198V84.5752C68.4888 87.1198 74.8872 91.4378 79.926 97.1258C88.6575 107.005 93.4267 119.765 93.3158 132.949Z" fill="#E57B07" stroke="#070707" stroke-width="2.99715" stroke-linecap="round" stroke-linejoin="round"/>
<path d="M74.0666 168.091H21.2942V277.764H74.0666V168.091Z" fill="#F7F3EF" stroke="#070707" stroke-width="2.99715" stroke-linecap="round" stroke-linejoin="round"/>
<path d="M40.446 2.13843H54.9148C56.9894 2.13843 58.9791 2.96259 60.4462 4.42961C61.9132 5.89662 62.7373 7.88633 62.7373 9.96101V34.9872H32.6159V9.96101C32.6159 8.9331 32.8185 7.91527 33.2121 6.9657C33.6057 6.01614 34.1826 5.15345 34.9097 4.42696C35.6369 3.70047 36.5002 3.12442 37.4501 2.73174C38.4001 2.33906 39.4181 2.13745 40.446 2.13843Z" fill="#F7F3EF" stroke="#070707" stroke-width="2.99715" stroke-linecap="round" stroke-linejoin="round"/>
<path d="M175.663 258.972C167.585 258.972 161.037 266.24 161.037 275.209V339.648C161.037 347.538 165.585 354.536 172.328 357.032L187.314 362.561C188.505 362.996 188.221 364.959 186.962 364.959H130.068C128.81 364.959 128.525 362.996 129.724 362.561L144.71 357.032C151.453 354.536 156.001 347.538 156.001 339.648V275.209C156.001 266.218 149.453 258.972 141.383 258.972H175.685H175.663Z" fill="#F7F3EF" stroke="#070707" stroke-width="2.99715" stroke-linecap="round" stroke-linejoin="round"/>
<path d="M176.727 258.972H140.289C128.944 258.972 120.058 248.137 121.107 235.594L128.442 148.407H188.573L195.908 235.594C196.957 248.115 188.071 258.972 176.727 258.972Z" fill="#F7F3EF" stroke="#070707" stroke-width="2.99715" stroke-linecap="round" stroke-linejoin="round"/>
<path d="M173.347 251.816H143.668C134.429 251.816 127.184 242.997 128.045 232.777L130.038 209.152H186.984L188.97 232.762C189.824 242.997 182.579 251.816 173.347 251.816Z" fill="#E57B07" stroke="#070707" stroke-width="2.99715" stroke-linecap="round" stroke-linejoin="round"/>
<path d="M206.428 135.182C224.417 135.182 239 120.599 239 102.611C239 84.6219 224.417 70.0391 206.428 70.0391C188.44 70.0391 173.857 84.6219 173.857 102.611C173.857 120.599 188.44 135.182 206.428 135.182Z" fill="#EFAF00"/>
<path d="M206.428 135.182C224.417 135.182 239 120.599 239 102.611C239 84.6219 224.417 70.0391 206.428 70.0391C188.44 70.0391 173.857 84.6219 173.857 102.611C173.857 120.599 188.44 135.182 206.428 135.182Z" stroke="black" stroke-width="2.99715" stroke-linecap="round" stroke-linejoin="round"/>
</svg>
