<svg width="448" height="345" viewBox="0 0 448 345" fill="none" xmlns="http://www.w3.org/2000/svg">
<path d="M216.707 111.257C216.707 111.257 231.557 86.6012 255.115 94.0852" stroke="#070707" stroke-width="2.92915" stroke-linecap="round" stroke-linejoin="round"/>
<path d="M225.443 100.639C225.443 100.639 234.963 100.031 232.883 104.725C231.579 107.691 219.702 105.758 219.702 105.758C219.702 105.758 220.104 92.7231 225.326 92.833C229.492 92.9135 225.443 100.639 225.443 100.639Z" stroke="#070707" stroke-width="2.92915" stroke-linecap="round" stroke-linejoin="round"/>
<path d="M232.605 95.6082C232.605 95.6082 241.297 96.5675 238.148 99.3502C236.552 100.764 226.732 99.6065 226.732 99.6065C226.732 99.6065 231.125 88.0071 235.38 87.6482C239.635 87.2894 232.605 95.6082 232.605 95.6082Z" stroke="#070707" stroke-width="2.92915" stroke-linecap="round" stroke-linejoin="round"/>
<path d="M243.882 92.5547C243.882 92.5547 250.663 94.8687 248.312 97.1095C247.17 98.1933 237.98 93.8581 237.98 93.8581C237.98 93.8581 242.132 86.3742 246.167 87.5824C248.832 88.4026 243.882 92.5547 243.882 92.5547Z" stroke="#070707" stroke-width="2.92915" stroke-linecap="round" stroke-linejoin="round"/>
<path d="M246.892 92.4741C246.892 92.4741 261.816 88.4246 261.025 94.671C260.461 99.3356 246.892 92.4741 246.892 92.4741Z" stroke="#070707" stroke-width="2.92915" stroke-linecap="round" stroke-linejoin="round"/>
<path d="M213.939 123.355C213.939 123.355 216.502 95.0811 192.629 88.5784" stroke="#070707" stroke-width="2.92915" stroke-linecap="round" stroke-linejoin="round"/>
<path d="M210.226 101.928C210.226 101.928 202.5 98.0541 203.416 102.03C203.884 104.059 212.657 108.379 212.657 108.379C212.657 108.379 215.974 96.4504 212.716 93.8874C209.457 91.3244 210.226 101.928 210.226 101.928Z" stroke="#070707" stroke-width="2.92915" stroke-linecap="round" stroke-linejoin="round"/>
<path d="M202.771 93.3528C202.771 93.3528 195.807 91.6172 196.4 94.7221C196.686 96.2307 206.85 97.6 206.85 97.6C206.85 97.6 207.927 89.208 203.877 88.0364C201.204 87.2601 202.771 93.3528 202.771 93.3528Z" stroke="#070707" stroke-width="2.92915" stroke-linecap="round" stroke-linejoin="round"/>
<path d="M200.318 91.6611C200.318 91.6611 190.469 80.3033 187.386 85.8467C185.057 90.0281 200.318 91.6611 200.318 91.6611Z" stroke="#070707" stroke-width="2.92915" stroke-linecap="round" stroke-linejoin="round"/>
<path d="M212.555 109.822C212.555 109.822 227.025 82.9837 208.329 67.5105" stroke="#070707" stroke-width="2.92915" stroke-linecap="round" stroke-linejoin="round"/>
<path d="M217.6 86.0372C217.6 86.0372 213.045 80.0544 212.086 84.0161C211.603 86.0372 217.593 93.47 217.593 93.47C217.593 93.47 225.78 85.4148 222.953 80.0398C221.034 76.4516 217.6 86.0372 217.6 86.0372Z" stroke="#070707" stroke-width="2.92915" stroke-linecap="round" stroke-linejoin="round"/>
<path d="M215.403 75.9539C215.403 75.9539 209.882 71.5601 209.01 74.6284C208.593 76.093 217.183 81.4241 217.183 81.4241C217.183 81.4241 221.942 74.2769 218.801 71.5894C216.707 69.7734 215.403 75.9539 215.403 75.9539Z" stroke="#070707" stroke-width="2.92915" stroke-linecap="round" stroke-linejoin="round"/>
<path d="M213.939 73.3979C213.939 73.3979 210.138 59.1696 204.851 62.9408C200.838 65.7821 213.939 73.3979 213.939 73.3979Z" stroke="#070707" stroke-width="2.92915" stroke-linecap="round" stroke-linejoin="round"/>
<path d="M164.341 262.907C162.945 262.544 161.743 261.656 160.987 260.428C160.23 259.199 159.979 257.726 160.284 256.316L192.402 119.964C194.387 111.872 203.218 107.069 211.639 109.507L215.894 110.745C224.315 113.183 228.797 121.846 225.648 129.608L171.583 259.611C170.984 260.948 169.917 262.02 168.584 262.626C167.251 263.233 165.742 263.333 164.341 262.907Z" fill="#E57B07" stroke="#070707" stroke-width="2.92915" stroke-linecap="round" stroke-linejoin="round"/>
<path d="M266.795 133.27C266.795 133.27 281.646 108.621 305.196 116.098" stroke="#070707" stroke-width="2.92915" stroke-linecap="round" stroke-linejoin="round"/>
<path d="M275.524 122.652C275.524 122.652 285.044 122.044 282.964 126.745C281.661 129.674 269.783 127.778 269.783 127.778C269.783 127.778 270.178 114.743 275.399 114.846C279.573 114.933 275.524 122.652 275.524 122.652Z" stroke="#070707" stroke-width="2.92915" stroke-linecap="round" stroke-linejoin="round"/>
<path d="M282.693 117.621C282.693 117.621 291.378 118.588 288.229 121.363C286.633 122.776 276.82 121.619 276.82 121.619C276.82 121.619 281.214 110.02 285.461 109.661C289.708 109.302 282.693 117.621 282.693 117.621Z" stroke="#070707" stroke-width="2.92915" stroke-linecap="round" stroke-linejoin="round"/>
<path d="M293.97 114.567C293.97 114.567 300.744 116.881 298.364 119.122C297.229 120.213 288.039 115.871 288.039 115.871C288.039 115.871 292.183 108.387 296.218 109.595C298.921 110.371 293.97 114.567 293.97 114.567Z" stroke="#070707" stroke-width="2.92915" stroke-linecap="round" stroke-linejoin="round"/>
<path d="M297.009 114.494C297.009 114.494 311.926 110.437 311.142 116.691C310.549 121.356 297.009 114.494 297.009 114.494Z" stroke="#070707" stroke-width="2.92915" stroke-linecap="round" stroke-linejoin="round"/>
<path d="M264.005 145.374C264.005 145.374 266.575 117.094 242.696 110.598" stroke="#070707" stroke-width="2.92915" stroke-linecap="round" stroke-linejoin="round"/>
<path d="M260.307 123.948C260.307 123.948 252.581 120.067 253.504 124.05C253.973 126.071 262.746 130.392 262.746 130.392C262.746 130.392 266.056 118.463 262.804 115.907C259.553 113.352 260.307 123.948 260.307 123.948Z" stroke="#070707" stroke-width="2.92915" stroke-linecap="round" stroke-linejoin="round"/>
<path d="M252.86 115.373C252.86 115.373 245.896 113.637 246.481 116.742C246.767 118.251 256.931 119.613 256.931 119.613C256.931 119.613 258.008 111.228 253.958 110.049C251.285 109.273 252.86 115.373 252.86 115.373Z" stroke="#070707" stroke-width="2.92915" stroke-linecap="round" stroke-linejoin="round"/>
<path d="M250.406 113.674C250.406 113.674 240.55 102.316 237.467 107.859C235.175 112.041 250.406 113.674 250.406 113.674Z" stroke="#070707" stroke-width="2.92915" stroke-linecap="round" stroke-linejoin="round"/>
<path d="M262.636 131.835C262.636 131.835 277.106 105.004 258.418 89.5303" stroke="#070707" stroke-width="2.92915" stroke-linecap="round" stroke-linejoin="round"/>
<path d="M267.652 108.05C267.652 108.05 263.097 102.067 262.138 106.036C261.647 108.05 267.645 115.49 267.645 115.49C267.645 115.49 275.824 107.435 272.998 102.053C271.123 98.4643 267.652 108.05 267.652 108.05Z" stroke="#070707" stroke-width="2.92915" stroke-linecap="round" stroke-linejoin="round"/>
<path d="M265.462 97.9223C265.462 97.9223 259.941 93.5286 259.077 96.5969C258.652 98.0614 267.242 103.4 267.242 103.4C267.242 103.4 272.002 96.2454 268.86 93.5579C266.788 91.7857 265.462 97.9223 265.462 97.9223Z" stroke="#070707" stroke-width="2.92915" stroke-linecap="round" stroke-linejoin="round"/>
<path d="M264.005 95.4106C264.005 95.4106 260.205 81.1822 254.917 84.9535C250.926 87.8021 264.005 95.4106 264.005 95.4106Z" stroke="#070707" stroke-width="2.92915" stroke-linecap="round" stroke-linejoin="round"/>
<path d="M214.422 284.919C213.025 284.559 211.823 283.67 211.067 282.441C210.312 281.212 210.063 279.738 210.372 278.329L242.498 141.999C244.482 133.907 253.314 129.103 261.735 131.549L265.997 132.787C274.418 135.225 278.892 143.888 275.744 151.643L221.679 281.624C221.08 282.965 220.012 284.04 218.675 284.647C217.338 285.254 215.825 285.351 214.422 284.919Z" fill="#E57B07" stroke="#070707" stroke-width="2.92915" stroke-linecap="round" stroke-linejoin="round"/>
<path d="M88.6477 110.913L85.2124 112.75L188.805 306.437L192.241 304.6L88.6477 110.913Z" fill="#F7F3EF" stroke="#070707" stroke-width="2.92915" stroke-linecap="round" stroke-linejoin="round"/>
<path d="M94.5731 107.747L91.1378 109.584L194.731 303.271L198.166 301.434L94.5731 107.747Z" fill="#F7F3EF" stroke="#070707" stroke-width="2.92915" stroke-linecap="round" stroke-linejoin="round"/>
<path d="M106.423 101.404L102.988 103.241L206.581 296.928L210.016 295.091L106.423 101.404Z" fill="#F7F3EF" stroke="#070707" stroke-width="2.92915" stroke-linecap="round" stroke-linejoin="round"/>
<path d="M118.274 95.0645L114.838 96.9019L218.431 290.588L221.867 288.751L118.274 95.0645Z" fill="#F7F3EF" stroke="#070707" stroke-width="2.92915" stroke-linecap="round" stroke-linejoin="round"/>
<path d="M100.498 104.574L97.0632 106.411L200.656 300.097L204.091 298.26L100.498 104.574Z" fill="#F7F3EF" stroke="#070707" stroke-width="2.92915" stroke-linecap="round" stroke-linejoin="round"/>
<path d="M112.348 98.2305L108.913 100.068L212.506 293.754L215.941 291.917L112.348 98.2305Z" fill="#F7F3EF" stroke="#070707" stroke-width="2.92915" stroke-linecap="round" stroke-linejoin="round"/>
<path d="M124.209 91.9012L120.774 93.7385L224.367 287.425L227.802 285.588L124.209 91.9012Z" fill="#F7F3EF" stroke="#070707" stroke-width="2.92915" stroke-linecap="round" stroke-linejoin="round"/>
<path d="M133.097 106.154L129.662 107.991L233.255 301.677L236.69 299.84L133.097 106.154Z" fill="#F7F3EF" stroke="#070707" stroke-width="2.92915" stroke-linecap="round" stroke-linejoin="round"/>
<path d="M139.015 102.988L135.58 104.825L239.173 298.511L242.608 296.674L139.015 102.988Z" fill="#F7F3EF" stroke="#070707" stroke-width="2.92915" stroke-linecap="round" stroke-linejoin="round"/>
<path d="M144.944 99.8206L141.509 101.658L245.102 295.344L248.537 293.507L144.944 99.8206Z" fill="#F7F3EF" stroke="#070707" stroke-width="2.92915" stroke-linecap="round" stroke-linejoin="round"/>
<path d="M150.876 96.6509L147.441 98.4883L251.033 292.175L254.469 290.337L150.876 96.6509Z" fill="#F7F3EF" stroke="#070707" stroke-width="2.92915" stroke-linecap="round" stroke-linejoin="round"/>
<path d="M89.523 143.588H315.946V311.018C315.946 319.428 312.606 327.493 306.659 333.439C300.713 339.385 292.648 342.726 284.238 342.726H121.231C112.822 342.726 104.756 339.385 98.81 333.439C92.8636 327.493 89.523 319.428 89.523 311.018V143.588Z" fill="#F7F3EF" stroke="#070707" stroke-width="2.92915" stroke-linecap="round" stroke-linejoin="round"/>
<path d="M315.946 160.167H342.36L370.773 142.504C371.52 141.926 372.062 141.122 372.316 140.212C372.571 139.302 372.525 138.333 372.186 137.451C370.978 134.398 366.818 133.416 364.131 135.547L338.647 150.859H315.946V160.167Z" fill="#F7F3EF" stroke="#070707" stroke-width="2.92915" stroke-linecap="round" stroke-linejoin="round"/>
<path d="M89.5083 160.167H63.0874L34.6747 142.482C33.9269 141.904 33.3856 141.1 33.131 140.19C32.8764 139.28 32.9221 138.311 33.2613 137.429C34.4696 134.376 38.6363 133.394 41.3165 135.525L66.7489 150.837H89.4498L89.5083 160.167Z" fill="#F7F3EF" stroke="#070707" stroke-width="2.92915" stroke-linecap="round" stroke-linejoin="round"/>
<path d="M315.946 94.1144L105.289 11.1023C121.187 0.696538 168.734 6.91366 220.58 27.3372C272.426 47.7606 311.421 75.6608 315.946 94.1144Z" fill="#F7F3EF" stroke="#070707" stroke-width="2.92915" stroke-linecap="round" stroke-linejoin="round"/>
<path d="M245.295 15.3277L213.001 2.60058C209.874 1.37033 206.586 3.42074 206.682 6.55493L207.158 22.1234L236.251 33.591L247.236 22.5261C249.425 20.3 248.422 16.558 245.295 15.3277Z" fill="#F7F3EF" stroke="#070707" stroke-width="2.92915" stroke-linecap="round" stroke-linejoin="round"/>
<path d="M421.806 158.307H417.712C418.05 158.99 418.227 159.741 418.232 160.504V164.246C418.232 165.149 417.874 166.016 417.235 166.656C416.597 167.296 415.731 167.656 414.827 167.658H394.125C393.677 167.658 393.233 167.57 392.819 167.398C392.405 167.227 392.029 166.976 391.712 166.659C391.395 166.342 391.144 165.966 390.972 165.552C390.801 165.138 390.713 164.694 390.713 164.246V160.533C390.717 159.771 390.895 159.02 391.233 158.336H386.963V151.182C386.962 150.522 387.091 149.869 387.343 149.26C387.595 148.65 387.964 148.097 388.43 147.63C388.896 147.163 389.449 146.793 390.058 146.541C390.667 146.288 391.32 146.158 391.98 146.158H416.782C417.442 146.157 418.096 146.287 418.706 146.539C419.316 146.791 419.87 147.161 420.336 147.627C420.803 148.094 421.173 148.648 421.425 149.258C421.677 149.868 421.807 150.522 421.806 151.182V158.307Z" fill="#F7F3EF" stroke="#070707" stroke-width="2.92915" stroke-linecap="round" stroke-linejoin="round"/>
<path d="M438.15 254.712L433.866 317.74C433.722 320.388 432.578 322.882 430.665 324.718C428.753 326.555 426.214 327.597 423.563 327.634H385.206C382.554 327.598 380.015 326.557 378.102 324.72C376.189 322.884 375.045 320.389 374.903 317.74L370.648 254.712H438.15Z" fill="#F7F3EF" stroke="#070707" stroke-width="2.92915" stroke-linecap="round" stroke-linejoin="round"/>
<path d="M445.949 236.618L439.857 323.657C439.624 326.786 438.218 329.712 435.921 331.849C433.624 333.987 430.604 335.177 427.466 335.184H381.332C378.19 335.177 375.166 333.982 372.868 331.839C370.57 329.695 369.167 326.762 368.942 323.628L362.82 236.618C362.574 233.154 363.221 229.685 364.701 226.543C366.181 223.402 368.443 220.693 371.27 218.677C374.352 216.537 376.87 213.684 378.612 210.361C380.353 207.039 381.267 203.345 381.274 199.593L381.01 166.882C380.96 165.774 381.136 164.668 381.526 163.63C381.916 162.592 382.512 161.643 383.278 160.842C384.045 160.041 384.966 159.403 385.985 158.967C387.005 158.531 388.103 158.307 389.212 158.307H419.55C420.66 158.305 421.759 158.528 422.781 158.963C423.802 159.398 424.725 160.035 425.493 160.837C426.261 161.638 426.858 162.587 427.249 163.626C427.64 164.665 427.816 165.773 427.766 166.882L427.496 199.593C427.506 203.345 428.422 207.038 430.165 210.36C431.907 213.683 434.426 216.535 437.506 218.677C440.331 220.695 442.591 223.404 444.069 226.545C445.547 229.686 446.195 233.155 445.949 236.618Z" fill="#E57B07" stroke="#070707" stroke-width="2.92915" stroke-linecap="round" stroke-linejoin="round"/>
<path d="M425.701 289.437C425.05 293.099 415.72 297.632 404.319 297.632C392.917 297.632 383.588 293.062 382.929 289.437L383.016 243.618C384.188 240.147 393.268 235.775 404.319 235.775C415.369 235.775 424.449 240.169 425.621 243.618L425.701 289.437Z" fill="#F7F3EF" stroke="#070707" stroke-width="2.92915" stroke-linecap="round" stroke-linejoin="round"/>
<path d="M24.3421 219.277V220.844C24.3421 221.705 24.6836 222.531 25.2918 223.141C25.9 223.75 26.7251 224.093 27.5861 224.095V229.002C27.5881 229.896 27.9446 230.753 28.5775 231.384C29.2104 232.016 30.0679 232.37 30.962 232.37H37.4574C37.9003 232.371 38.3391 232.285 38.7487 232.116C39.1582 231.947 39.5304 231.699 39.844 231.386C40.1576 231.073 40.4063 230.702 40.5761 230.293C40.7458 229.883 40.8332 229.445 40.8332 229.002V224.095C41.2598 224.095 41.6823 224.011 42.0763 223.848C42.4704 223.684 42.8283 223.445 43.1297 223.143C43.431 222.841 43.6698 222.482 43.8324 222.088C43.995 221.693 44.0782 221.271 44.0772 220.844V219.277C44.0772 218.417 43.7355 217.591 43.1271 216.983C42.5187 216.375 41.6936 216.033 40.8332 216.033H27.5861C26.7263 216.035 25.9023 216.377 25.2944 216.985C24.6864 217.593 24.344 218.417 24.3421 219.277Z" fill="#F7F3EF" stroke="#070707" stroke-width="2.92915" stroke-linecap="round" stroke-linejoin="round"/>
<path d="M2 303.021C2 311.348 7.03814 324.023 11.6442 331.478C12.1644 332.324 12.8924 333.022 13.759 333.507C14.6255 333.991 15.6017 334.246 16.5945 334.246H49.2984C50.3041 334.242 51.2919 333.979 52.1666 333.483C53.0413 332.987 53.7734 332.273 54.2926 331.412C58.8841 323.738 63.9222 310.176 63.9222 301.85C63.9222 285.154 56.3357 272.749 43.3669 267.725V234.86L50.4115 224.081H22.5846V267.71C9.5865 272.749 2 286.333 2 303.021Z" fill="#F7F3EF" stroke="#070707" stroke-width="2.92915" stroke-linecap="round" stroke-linejoin="round"/>
<path d="M22.5626 232.4H13.2919C11.8257 232.401 10.3814 232.756 9.08124 233.433C7.78105 234.111 6.66314 235.092 5.82204 236.293C4.98095 237.494 4.4414 238.88 4.24902 240.333C4.05664 241.787 4.21709 243.265 4.7168 244.643L14.7125 272.207" stroke="#070707" stroke-width="2.92915" stroke-linecap="round" stroke-linejoin="round"/>
<path d="M6.89901 303.27C6.89901 310.278 11.1463 320.948 15.0201 327.223C15.4579 327.935 16.0707 328.523 16.8001 328.93C17.5295 329.338 18.3512 329.552 19.1868 329.552H46.7135C47.5604 329.55 48.3925 329.329 49.129 328.911C49.8655 328.493 50.4813 327.891 50.9168 327.165C54.7833 320.706 59.0232 309.282 59.0232 302.267C59.0693 298.037 58.4059 293.829 57.0607 289.818H9.11785C7.60613 294.14 6.85539 298.692 6.89901 303.27Z" fill="#F7F3EF" stroke="#070707" stroke-width="2.92915" stroke-linecap="round" stroke-linejoin="round"/>
<path d="M370.985 251.754V331.009C370.985 331.512 370.886 332.01 370.693 332.474C370.501 332.938 370.218 333.36 369.863 333.715C369.507 334.07 369.085 334.351 368.62 334.543C368.155 334.735 367.658 334.833 367.155 334.832H336.963C336.461 334.833 335.963 334.735 335.499 334.543C335.035 334.351 334.613 334.07 334.258 333.715C333.903 333.359 333.621 332.938 333.429 332.473C333.238 332.009 333.139 331.512 333.14 331.009V251.754C333.136 249.092 334.061 246.511 335.754 244.457C337.448 242.403 339.804 241.003 342.418 240.499V221.591H361.707V240.499C364.32 241.004 366.676 242.404 368.369 244.458C370.063 246.512 370.987 249.092 370.985 251.754Z" fill="#F7F3EF" stroke="#070707" stroke-width="2.92915" stroke-linecap="round" stroke-linejoin="round"/>
<path d="M365.427 263.148V325.869C365.427 328.168 363.794 330.028 361.765 330.028H342.338C340.324 330.028 338.676 328.168 338.676 325.869V263.148H365.427Z" fill="#EFAF00" stroke="black" stroke-width="2.92915" stroke-linecap="round" stroke-linejoin="round"/>
<path d="M364.263 218.633H339.863C338.892 218.633 338.105 219.419 338.105 220.39V223.012C338.105 223.982 338.892 224.769 339.863 224.769H364.263C365.233 224.769 366.02 223.982 366.02 223.012V220.39C366.02 219.419 365.233 218.633 364.263 218.633Z" fill="#F7F3EF" stroke="#070707" stroke-width="2.92915" stroke-linecap="round" stroke-linejoin="round"/>
</svg>
