<svg width="392" height="422" viewBox="0 0 392 422" fill="none" xmlns="http://www.w3.org/2000/svg">
<path d="M360.188 165.102C350.433 202.147 320.699 305.425 292.781 303.232C258.782 300.567 300.886 145.666 300.886 145.666C300.886 145.666 334.763 9.42301 368.831 10.5941C402.899 11.7651 360.188 165.102 360.188 165.102Z" fill="#F7F3EF" stroke="#070707" stroke-width="3.49565" stroke-linecap="round" stroke-linejoin="round"/>
<path d="M320.156 234.066C320.254 231.824 314.846 229.765 308.079 229.468C301.311 229.17 295.746 230.747 295.649 232.989C295.552 235.231 300.959 237.29 307.726 237.587C314.494 237.885 320.059 236.308 320.156 234.066Z" fill="#F7F3EF" stroke="#070707" stroke-width="3.49565" stroke-linecap="round" stroke-linejoin="round"/>
<path d="M356.505 66.8653C363.279 66.8653 368.77 65.0459 368.77 62.8016C368.77 60.5573 363.279 58.7379 356.505 58.7379C349.731 58.7379 344.24 60.5573 344.24 62.8016C344.24 65.0459 349.731 66.8653 356.505 66.8653Z" fill="#F7F3EF" stroke="#070707" stroke-width="3.49565" stroke-linecap="round" stroke-linejoin="round"/>
<path d="M347.836 102.774C356.865 102.774 364.184 100.352 364.184 97.3648C364.184 94.3772 356.865 91.9553 347.836 91.9553C338.807 91.9553 331.488 94.3772 331.488 97.3648C331.488 100.352 338.807 102.774 347.836 102.774Z" fill="#F7F3EF" stroke="#070707" stroke-width="3.49565" stroke-linecap="round" stroke-linejoin="round"/>
<path d="M333.807 138.989C343.944 138.989 352.162 136.27 352.162 132.915C352.162 129.561 343.944 126.842 333.807 126.842C323.67 126.842 315.453 129.561 315.453 132.915C315.453 136.27 323.67 138.989 333.807 138.989Z" fill="#F7F3EF" stroke="#070707" stroke-width="3.49565" stroke-linecap="round" stroke-linejoin="round"/>
<path d="M333.777 202.081C333.906 199.096 326.699 196.355 317.679 195.959C308.659 195.563 301.241 197.661 301.112 200.646C300.982 203.63 308.19 206.371 317.21 206.767C326.23 207.164 333.647 205.065 333.777 202.081Z" fill="#F7F3EF" stroke="#070707" stroke-width="3.49565" stroke-linecap="round" stroke-linejoin="round"/>
<path d="M340.886 174.075C341.032 170.724 332.94 167.647 322.813 167.202C312.685 166.757 304.358 169.113 304.212 172.464C304.067 175.815 312.159 178.893 322.286 179.338C332.413 179.782 340.741 177.426 340.886 174.075Z" fill="#F7F3EF" stroke="#070707" stroke-width="3.49565" stroke-linecap="round" stroke-linejoin="round"/>
<path d="M177.764 132.295C177.764 132.295 184.574 123.206 174.185 113.742L177.746 112.44C187.24 118.715 188.048 128.065 188.048 128.065L177.764 132.295Z" fill="#F7F3EF" stroke="#070707" stroke-width="3.49565" stroke-linecap="round" stroke-linejoin="round"/>
<path d="M191.297 210.816C187.085 212.361 182.454 212.284 178.295 210.602C174.136 208.919 170.741 205.749 168.764 201.701L148.143 164.237C143.374 154.484 150.054 141.996 160.2 138.281L160.486 138.168C165.013 136.51 170.009 136.728 174.376 138.775C178.743 140.822 182.124 144.529 183.775 149.083L202.138 187.378C203.789 191.932 203.574 196.96 201.542 201.355C199.509 205.751 195.824 209.154 191.297 210.816V210.816Z" fill="#EFAF00" stroke="black" stroke-width="3.49565" stroke-linecap="round" stroke-linejoin="round"/>
<path d="M226.99 197.716C231.2 196.171 234.694 193.115 236.801 189.136C238.908 185.156 239.479 180.534 238.404 176.157L230.586 133.982C227.98 123.434 214.499 118.347 204.353 122.07L204.066 122.175C199.54 123.836 195.855 127.237 193.82 131.63C191.786 136.024 191.569 141.05 193.217 145.605L203.641 186.81C204.457 189.071 205.71 191.149 207.327 192.922C208.944 194.695 210.893 196.13 213.063 197.143C215.233 198.156 217.58 198.729 219.97 198.827C222.36 198.925 224.745 198.548 226.99 197.716V197.716Z" fill="#EFAF00" stroke="black" stroke-width="3.49565" stroke-linecap="round" stroke-linejoin="round"/>
<path d="M210.364 206.63C208.469 207.325 206.457 207.639 204.442 207.552C202.427 207.465 200.448 206.98 198.62 206.123C196.791 205.267 195.148 204.057 193.784 202.562C192.42 201.067 191.363 199.316 190.672 197.41L173.012 148.681C171.615 144.83 171.796 140.578 173.515 136.862C175.233 133.145 178.349 130.267 182.176 128.861C184.072 128.165 186.086 127.852 188.102 127.939C190.118 128.027 192.097 128.513 193.927 129.37C195.756 130.227 197.4 131.438 198.764 132.934C200.128 134.43 201.186 136.182 201.877 138.089L219.537 186.818C220.229 188.725 220.541 190.75 220.455 192.778C220.368 194.806 219.885 196.797 219.033 198.638C218.181 200.478 216.977 202.131 215.489 203.502C214.002 204.873 212.26 205.936 210.364 206.63V206.63Z" fill="#EFAF00" stroke="black" stroke-width="3.49565" stroke-linecap="round" stroke-linejoin="round"/>
<path d="M128.155 167.155C128.155 167.155 100.749 115.228 20.1129 157.708" stroke="#070707" stroke-width="3.49565" stroke-linecap="round" stroke-linejoin="round"/>
<path d="M56.1443 143.551C56.1443 143.551 39.5184 147.921 39.5184 152.29C39.5184 156.66 47.8314 154.274 47.8314 154.274C47.8314 154.274 35.7746 160.26 36.1915 164.254C36.6085 168.248 45.1299 164.254 45.1299 164.254C45.1299 164.254 39.3447 176.393 43.8964 177.791C48.4481 179.189 48.6566 169.716 48.6566 169.716C48.6566 169.716 54.4765 174.33 56.1443 172.687C57.8121 171.044 52.192 159.631 52.192 159.631C52.192 159.631 57.595 166.78 60.9219 164.254C64.2488 161.728 54.659 150.534 56.1443 143.551Z" fill="#F7F3EF" stroke="#070707" stroke-width="3.49565" stroke-linecap="round" stroke-linejoin="round"/>
<path d="M27.3487 154.082C27.3487 154.082 12.1126 149.939 9.82807 154.082C7.54353 158.224 14.8575 156.433 14.8575 156.433C14.8575 156.433 0.959182 162.786 2.06236 167.155C3.16554 171.525 10.5143 167.155 10.5143 167.155C10.5143 167.155 9.23739 177.599 14.6751 175.589C20.1128 173.579 19.0444 159.404 27.3487 154.082Z" fill="#F7F3EF" stroke="#070707" stroke-width="3.49565" stroke-linecap="round" stroke-linejoin="round"/>
<path d="M111.182 113.034C111.182 113.034 123.421 107.214 122.943 103.421C122.466 99.6283 118.426 104.749 118.426 104.749C118.426 104.749 124.715 93.3099 121.823 91.2911C118.93 89.2724 116.15 95.9054 116.15 95.9054C116.15 95.9054 111.946 88.9141 109.271 93.0914C106.595 97.2687 114.17 105.291 111.182 113.034Z" fill="#F7F3EF" stroke="#070707" stroke-width="3.49565" stroke-linecap="round" stroke-linejoin="round"/>
<path d="M132.672 167.155C132.672 167.155 119.26 116.512 60.4962 119.58" stroke="#070707" stroke-width="3.49565" stroke-linecap="round" stroke-linejoin="round"/>
<path d="M63.6928 118.916C63.6928 118.916 57.0737 136.193 50.4633 132.784C43.8529 129.376 53.2604 126.3 53.2604 126.3C53.2604 126.3 33.933 131.15 34.68 124.246C35.4271 117.342 49.1604 120.043 49.1604 120.043C49.1604 120.043 41.8551 115.918 49.1604 114.126C56.4657 112.335 63.6928 118.916 63.6928 118.916Z" fill="#F7F3EF" stroke="#070707" stroke-width="3.49565" stroke-linecap="round" stroke-linejoin="round"/>
<path d="M96.5885 125.732C96.5885 125.732 94.5472 108.839 87.572 108.839C80.5967 108.839 88.9879 119.449 88.9879 119.449C88.9879 119.449 80.5967 112.457 79.0679 117.281C77.5391 122.105 87.572 124.482 87.572 124.482C87.572 124.482 81.1005 132.68 85.9389 132.269C90.7773 131.858 96.5885 125.732 96.5885 125.732Z" fill="#F7F3EF" stroke="#070707" stroke-width="3.49565" stroke-linecap="round" stroke-linejoin="round"/>
<path d="M95.5809 143.481C95.5809 143.481 79.4501 138.343 76.5575 144.731C73.6649 151.119 86.7467 147.833 86.7467 147.833C86.7467 147.833 76.9137 152.605 80.6662 156.013C84.4188 159.421 90.7078 151.25 90.7078 151.25C90.7078 151.25 95.4332 160.566 97.075 155.978C98.7167 151.39 95.5809 143.481 95.5809 143.481Z" fill="#F7F3EF" stroke="#070707" stroke-width="3.49565" stroke-linecap="round" stroke-linejoin="round"/>
<path d="M107.646 126.886C107.646 126.886 121.058 119.213 118.565 115.472C116.072 111.732 107.924 121.354 107.924 121.354C107.924 121.354 105.084 110.674 101.696 112.37C98.3085 114.065 107.646 126.886 107.646 126.886Z" fill="#F7F3EF" stroke="#070707" stroke-width="3.49565" stroke-linecap="round" stroke-linejoin="round"/>
<path d="M118.878 166.526C118.878 166.526 97.1184 124.054 114.37 108.21" stroke="#070707" stroke-width="3.49565" stroke-linecap="round" stroke-linejoin="round"/>
<path d="M226 49.8765C226 49.8765 244.545 82.7006 237.943 215.317L251.025 215.736C251.025 215.736 255.377 90.9503 226 49.8765Z" fill="#F7F3EF" stroke="#070707" stroke-width="3.49565" stroke-linecap="round" stroke-linejoin="round"/>
<path d="M237.943 215.317C237.943 215.317 263.039 44.7991 245.327 2.6853C245.327 2.6853 272.889 44.8603 251.051 215.701L237.943 215.317Z" fill="#F7F3EF" stroke="#070707" stroke-width="3.49565" stroke-linecap="round" stroke-linejoin="round"/>
<path d="M237.943 215.317C245.509 154.082 299.444 74.3461 299.444 74.3461C299.444 74.3461 256.341 170.773 251.051 215.71L237.943 215.317Z" fill="#F7F3EF" stroke="#070707" stroke-width="3.49565" stroke-linecap="round" stroke-linejoin="round"/>
<path d="M232.332 263.88C232.332 263.88 236.336 240.511 237.969 215.317C237.969 215.317 244.919 209.566 251.051 215.736C249.776 233.165 249.979 250.672 251.659 268.066L232.332 263.88Z" fill="#F7F3EF" stroke="#070707" stroke-width="3.49565" stroke-linecap="round" stroke-linejoin="round"/>
<path d="M251.555 269.47C252.445 266.337 248.863 262.56 243.553 261.034C238.244 259.507 233.219 260.809 232.329 263.941C231.439 267.074 235.022 270.851 240.331 272.377C245.64 273.904 250.666 272.602 251.555 269.47Z" fill="#F7F3EF" stroke="#070707" stroke-width="3.49565" stroke-linecap="round" stroke-linejoin="round"/>
<path d="M249.601 268.809V268.861C249.245 270.137 248.107 271.081 246.404 271.483C244.607 271.889 242.736 271.817 240.975 271.273C236.884 270.102 234.243 267.201 234.894 264.667V264.614C235.251 263.338 236.389 262.394 238.091 261.992C239.891 261.586 241.765 261.658 243.529 262.202C247.629 263.373 250.278 266.275 249.601 268.809ZM235.989 264.99C235.494 266.86 237.9 269.246 241.262 270.233C242.832 270.726 244.503 270.795 246.109 270.434C246.634 270.362 247.132 270.152 247.551 269.825C247.97 269.499 248.297 269.067 248.497 268.573V268.573C249.001 266.703 246.595 264.317 243.225 263.329C241.654 262.837 239.983 262.768 238.378 263.128C237.852 263.201 237.355 263.411 236.936 263.737C236.516 264.064 236.19 264.496 235.989 264.99V264.99Z" fill="#F7F3EF" stroke="#070707" stroke-width="3.49565" stroke-linecap="round" stroke-linejoin="round"/>
<path d="M245.614 267.708C245.249 268.992 243.425 269.56 241.453 268.992C239.481 268.424 238.247 266.991 238.586 265.715C238.951 264.422 240.775 263.854 242.747 264.422C244.701 264.99 245.952 266.423 245.614 267.708ZM239.681 266.03C239.533 266.598 240.384 267.533 241.774 267.926C243.164 268.319 244.38 267.987 244.536 267.419C244.684 266.851 243.824 265.925 242.443 265.523C241.053 265.13 239.837 265.462 239.681 266.03Z" fill="#F7F3EF" stroke="#070707" stroke-width="3.49565" stroke-linecap="round" stroke-linejoin="round"/>
<path d="M380.862 166.526L348.513 414.595H334.189L297.211 166.526H380.862Z" fill="#F7F3EF" stroke="#070707" stroke-width="3.49565" stroke-linecap="round" stroke-linejoin="round"/>
<path d="M390 174.549L358.216 415.836H343.892L307.487 174.549H390Z" fill="#F7F3EF" stroke="#070707" stroke-width="3.49565" stroke-linecap="round" stroke-linejoin="round"/>
<path d="M381.791 166.526L349.434 414.595H335.11L298.141 166.526H381.791Z" fill="#F7F3EF" stroke="#070707" stroke-width="3.49565" stroke-linecap="round" stroke-linejoin="round"/>
<path d="M335.11 414.595H133.723L101.366 166.526H298.141L335.11 414.595Z" fill="#F7F3EF" stroke="#070707" stroke-width="3.49565" stroke-linecap="round" stroke-linejoin="round"/>
<path d="M137.18 327.186C137.18 327.186 149.09 322.135 144.329 306.579L148.629 307.401C150.318 310.816 151.277 314.549 151.447 318.36C151.616 322.171 150.99 325.975 149.611 329.528L137.18 327.186Z" fill="#1C0E0C"/>
<path d="M104.415 413.065C99.3289 412.1 94.7771 409.277 91.6356 405.139C88.4941 401.001 86.9849 395.84 87.3982 390.649L88.8923 341.23C89.8826 328.724 103.824 320.3 116.072 322.624L116.428 322.694C119.135 323.207 121.714 324.252 124.019 325.768C126.324 327.285 128.309 329.243 129.861 331.532C131.413 333.821 132.502 336.395 133.064 339.107C133.627 341.819 133.653 344.616 133.141 347.338L128.911 396.277C127.873 401.77 124.709 406.624 120.116 409.772C115.523 412.919 109.876 414.104 104.415 413.065V413.065Z" fill="#1C0E0C"/>
<path d="M147.509 421.289C152.593 422.253 157.853 421.293 162.277 418.593C166.701 415.892 169.976 411.642 171.475 406.659L188.474 360.115C192.079 348.107 181.672 335.06 169.425 332.735L169.077 332.665C163.61 331.63 157.959 332.82 153.364 335.974C148.769 339.129 145.607 343.989 144.573 349.488L130.796 396.574C130.275 399.302 130.294 402.106 130.853 404.825C131.411 407.545 132.498 410.127 134.051 412.423C135.604 414.72 137.592 416.685 139.901 418.206C142.211 419.727 144.796 420.775 147.509 421.289V421.289Z" fill="#1C0E0C"/>
<path d="M125.792 420.231C121.17 419.354 117.083 416.665 114.431 412.756C111.779 408.848 110.779 404.039 111.651 399.389L122.691 340.548C123.123 338.246 124.002 336.051 125.277 334.091C126.552 332.13 128.198 330.441 130.122 329.121C132.046 327.8 134.209 326.874 136.489 326.395C138.769 325.916 141.12 325.894 143.409 326.33V326.33C148.031 327.207 152.118 329.896 154.77 333.805C157.422 337.713 158.422 342.522 157.55 347.172L146.51 406.013C146.078 408.315 145.199 410.509 143.924 412.47C142.649 414.431 141.003 416.12 139.079 417.44C137.155 418.761 134.991 419.687 132.712 420.166C130.432 420.645 128.081 420.667 125.792 420.231V420.231Z" fill="#1C0E0C"/>
<path d="M126.548 320.291C126.548 320.291 138.457 315.24 133.697 299.684L137.997 300.506C139.687 303.922 140.647 307.657 140.814 311.47C140.982 315.283 140.354 319.088 138.97 322.642L126.548 320.291Z" fill="#F7F3EF" stroke="#070707" stroke-width="3.49565" stroke-linecap="round" stroke-linejoin="round"/>
<path d="M93.7481 406.17C88.6619 405.205 84.1102 402.382 80.9687 398.244C77.8272 394.106 76.3179 388.945 76.7313 383.754L78.2253 334.335C79.2156 321.829 93.1574 313.404 105.405 315.729L105.753 315.799C108.46 316.311 111.04 317.355 113.346 318.871C115.652 320.387 117.638 322.346 119.191 324.634C120.744 326.923 121.833 329.497 122.396 332.21C122.96 334.923 122.986 337.72 122.474 340.443L118.244 389.382C117.204 394.874 114.04 399.726 109.447 402.873C104.855 406.021 99.2086 407.207 93.7481 406.17V406.17Z" fill="#EA631F" stroke="#070707" stroke-width="3.49565" stroke-linecap="round" stroke-linejoin="round"/>
<path d="M136.868 414.35C141.953 415.317 147.213 414.357 151.638 411.657C156.062 408.956 159.337 404.705 160.834 399.721L177.833 353.246C181.438 341.239 171.032 328.191 158.784 325.867L158.436 325.797C155.728 325.282 152.945 325.309 150.247 325.877C147.55 326.444 144.99 327.542 142.714 329.106C140.438 330.67 138.491 332.67 136.984 334.992C135.477 337.314 134.44 339.912 133.932 342.637L120.155 389.706C119.643 392.428 119.669 395.225 120.232 397.937C120.795 400.649 121.883 403.223 123.435 405.512C124.987 407.801 126.973 409.759 129.277 411.276C131.582 412.792 134.161 413.837 136.868 414.35V414.35Z" fill="#EA631F" stroke="#070707" stroke-width="3.49565" stroke-linecap="round" stroke-linejoin="round"/>
<path d="M115.152 413.336C110.529 412.459 106.442 409.77 103.79 405.861C101.138 401.952 100.138 397.144 101.01 392.493L112.05 333.653C112.923 329.002 115.595 324.891 119.48 322.223C123.366 319.555 128.145 318.549 132.768 319.426C137.39 320.307 141.475 322.998 144.126 326.908C146.778 330.817 147.779 335.626 146.909 340.277L135.869 399.118C135.437 401.42 134.558 403.614 133.283 405.575C132.009 407.536 130.362 409.225 128.438 410.545C126.514 411.865 124.351 412.792 122.071 413.27C119.791 413.749 117.44 413.772 115.152 413.336V413.336Z" fill="#EA631F" stroke="#070707" stroke-width="3.49565" stroke-linecap="round" stroke-linejoin="round"/>
</svg>
