<svg width="108" height="188" viewBox="0 0 108 188" fill="none" xmlns="http://www.w3.org/2000/svg">
<g clip-path="url(#clip0_6_3)">
<path d="M70.6197 2.64731C99.5764 5.87132 117.865 44.1 102.204 68.6688C86.544 93.2377 44.1681 92.798 29.0207 67.9096C13.8733 43.0211 33.0979 -1.53035 70.6197 2.64731Z" fill="#EFAF00"/>
<path d="M40.8481 170.231C29.5897 170.51 29.6188 187.005 40.8481 187.314C52.1071 187.035 52.0779 170.541 40.8481 170.231Z" fill="black"/>
<path d="M86.6024 33.5084C80.9335 11.9862 60.9012 -2.93444 38.4714 0.7891C26.0707 2.57815 15.5327 11.5179 8.66426 21.6231C2.33333 31.1093 0.0791252 42.7237 1.11708 53.9891C2.65447 71.6439 7.90054 88.7981 15.5358 104.746C21.4492 116.45 28.5814 127.489 35.2496 138.776C35.1073 139.032 34.9722 139.291 34.8294 139.546C32.1003 144.72 29.5343 149.978 26.7729 155.135C27.3484 154.499 27.9349 153.871 28.4927 153.218C45.6719 132.844 62.8244 112.258 76.4423 89.2625C85.995 72.7052 91.4861 52.4049 86.6024 33.5084ZM68.6507 66.2916C65.0207 80.9709 61.8897 86.0007 55.2016 100.025C48.9948 112.757 42.6514 125.415 35.7809 137.802C30.8658 123.716 24.8383 109.995 21.1082 95.5337C15.98 75.3912 13.0111 50.5456 18.4401 37.9532C24.0427 27.544 25.7871 27.2885 31.5195 22.7344C37.8041 19.0248 34.3717 20.3039 41.556 18.5758C42.6841 18.4395 43.8198 18.3761 44.9561 18.3859C45.5108 18.4348 45.8455 18.4606 46.0712 18.4751C48.9133 18.9395 51.6889 19.7453 54.3378 20.875C65.0332 26.853 74.5531 40.6571 68.6507 66.2916H68.6507Z" fill="black"/>
<path d="M50.3513 49.5726C49.0024 48.2446 47.3642 47.2472 45.565 46.6588C46.6958 47.6099 47.6547 48.7481 48.4 50.024C51.6525 55.2691 49.2867 62.7885 43.0773 63.845C30.8392 65.4517 41.6035 47.5094 43.2008 42.3191C38.9171 47.813 32.7353 53.3539 32.5726 60.7719C32.7405 67.8872 39.8075 71.2187 45.9675 68.5036C53.816 65.6914 56.285 55.5184 50.3513 49.5726Z" fill="black"/>
</g>
<defs>
<clipPath id="clip0_6_3">
<rect width="107.074" height="187.095" fill="white" transform="translate(0.874634 0.21875)"/>
</clipPath>
</defs>
</svg>
