<svg width="75" height="69" viewBox="0 0 75 69" fill="none" xmlns="http://www.w3.org/2000/svg">
<path d="M38.2 24.48L38.52 28.6L27.76 45.68C27.76 45.68 27.64 45.9067 27.4 46.36C27.16 46.7867 26.92 47.3067 26.68 47.92C26.4667 48.5333 26.3467 49.1467 26.32 49.76H25.96L24.4 46.48L38.2 24.48ZM13.6 46.44V49H9.68V48.6C9.68 48.6 9.77333 48.6 9.96 48.6C10.12 48.6 10.2 48.6 10.2 48.6C10.8667 48.6 11.44 48.4133 11.92 48.04C12.4267 47.6667 12.7333 47.1333 12.84 46.44H13.6ZM15.32 47C15.2933 47.2933 15.3867 47.64 15.6 48.04C15.8133 48.4133 16.1867 48.6 16.72 48.6H17.28V49H14.88L15.12 47H15.32ZM15.96 24.48H16.28L17.64 28.32L15.12 49H12.52L15.96 24.48ZM16.28 24.48L28.12 42.2L25.96 49.76L15.32 33.64L16.28 24.48ZM38.56 24.48L42.08 49H35.96L34 34.4L38.2 24.48H38.56ZM40.96 46.44H41.72C41.8533 47.1333 42.16 47.6667 42.64 48.04C43.1467 48.4133 43.7067 48.6 44.32 48.6C44.32 48.6 44.4133 48.6 44.6 48.6C44.7867 48.6 44.88 48.6 44.88 48.6V49H40.96V46.44ZM35.68 47H35.92L36.16 49H33.76V48.6H34.32C34.9067 48.6 35.2933 48.4133 35.48 48.04C35.6667 47.64 35.7333 47.2933 35.68 47ZM59.8113 33.88L68.7713 46.32C69.2779 47.0667 69.8113 47.64 70.3713 48.04C70.9313 48.4133 71.5846 48.6133 72.3313 48.64V49H69.2513C68.9846 49 68.5446 48.9867 67.9313 48.96C67.3179 48.9333 66.6113 48.84 65.8113 48.68C65.0379 48.4933 64.2513 48.1867 63.4513 47.76C62.6513 47.3333 61.9446 46.72 61.3313 45.92C61.1979 45.7333 60.9713 45.4133 60.6513 44.96C60.3313 44.5067 59.9446 43.9733 59.4913 43.36C59.0646 42.7467 58.6113 42.12 58.1313 41.48C57.6779 40.84 57.2513 40.24 56.8513 39.68C56.4513 39.12 56.1313 38.6667 55.8913 38.32C55.6513 37.9733 55.5313 37.8 55.5313 37.8L59.8113 33.88ZM68.2913 25.24L57.8513 37.56L55.5313 37.8L65.0113 25.24H68.2913ZM70.7713 24.96V25.36H70.6113C69.8379 25.36 69.1179 25.5067 68.4513 25.8C67.7846 26.0933 67.2379 26.4933 66.8113 27L63.7313 26.92C64.0246 26.5467 64.0779 26.2 63.8913 25.88C63.7046 25.5333 63.3846 25.36 62.9313 25.36H62.6113V24.96H70.6113H70.7713ZM54.3713 24.96V49H48.6113V24.96H54.3713ZM48.6913 46.48V49H45.9713V48.6C45.9713 48.6 46.0246 48.6 46.1313 48.6C46.2646 48.6 46.3446 48.6 46.3713 48.6C46.9846 48.6 47.5046 48.4 47.9313 48C48.3579 47.5733 48.5846 47.0667 48.6113 46.48H48.6913ZM54.2513 46.48H54.3713C54.3713 47.0667 54.5846 47.5733 55.0113 48C55.4379 48.4 55.9579 48.6 56.5713 48.6C56.5979 48.6 56.6779 48.6 56.8113 48.6C56.9446 48.6 57.0113 48.6 57.0113 48.6V49H54.2513V46.48ZM54.2513 27.52V24.96H57.0113V25.36C56.9846 25.36 56.9046 25.36 56.7713 25.36C56.6646 25.36 56.5979 25.36 56.5713 25.36C55.9579 25.36 55.4379 25.5733 55.0113 26C54.5846 26.4 54.3713 26.9067 54.3713 27.52H54.2513ZM48.6913 27.52H48.6113C48.5846 26.9067 48.3579 26.4 47.9313 26C47.5046 25.5733 46.9846 25.36 46.3713 25.36C46.3713 25.36 46.3046 25.36 46.1713 25.36C46.0379 25.36 45.9579 25.36 45.9313 25.36V24.96H48.6913V27.52Z" fill="black"/>
</svg>
